<svg width="587" height="159" viewBox="0 0 587 159" fill="none" xmlns="http://www.w3.org/2000/svg">
<rect y="1.00931" width="149.029" height="157.133" rx="15" fill="url(#paint0_linear_17_2)"/>
<path d="M89.8834 29.4148L89.917 1.0327L62.3233 1L62.2896 29.3821L76.4882 23.0918L89.8834 29.4148Z" fill="white" stroke="white"/>
<path d="M85.1633 20.7369L85.1866 1.02709L66.2652 1.00467L66.2419 20.7145L75.9781 16.346L85.1633 20.7369Z" fill="#067DD9" stroke="#067DD9"/>
<path d="M82.0172 14.426L82.033 1.02334L69.4188 1.00839L69.4029 14.4111L75.8938 11.4404L82.0172 14.426Z" fill="white" stroke="white"/>
<path d="M128.508 74.3205H82.5M128.508 98.3664H89.8767V134.238" stroke="white" stroke-width="15"/>
<path d="M163.891 135V74.6364H180.278V121.795H204.683V135H163.891ZM247.031 74.6364H263.418V113.307C263.418 117.905 262.318 121.884 260.117 125.244C257.936 128.584 254.89 131.168 250.98 132.996C247.07 134.804 242.531 135.707 237.363 135.707C232.156 135.707 227.597 134.804 223.687 132.996C219.777 131.168 216.731 128.584 214.55 125.244C212.388 121.884 211.308 117.905 211.308 113.307V74.6364H227.695V111.892C227.695 113.759 228.108 115.429 228.933 116.903C229.759 118.357 230.898 119.496 232.352 120.322C233.826 121.147 235.496 121.56 237.363 121.56C239.249 121.56 240.92 121.147 242.374 120.322C243.828 119.496 244.967 118.357 245.793 116.903C246.618 115.429 247.031 113.759 247.031 111.892V74.6364ZM288.774 74.6364L298.677 92.2031H299.149L309.17 74.6364H327.444L309.406 104.818L328.152 135H309.406L299.149 117.08H298.677L288.42 135H269.792L288.302 104.818L270.382 74.6364H288.774ZM334.511 74.6364H354.907L368.937 108.827H369.644L383.674 74.6364H404.07V135H388.036V100.102H387.565L374.124 134.528H364.457L351.016 99.8665H350.545V135H334.511V74.6364ZM427.517 135H409.833L429.757 74.6364H452.158L472.083 135H454.398L441.193 91.2599H440.722L427.517 135ZM424.216 111.185H457.463V123.446H424.216V111.185ZM477.896 135V74.6364H503.952C508.432 74.6364 512.352 75.4518 515.712 77.0827C519.072 78.7137 521.686 81.0618 523.552 84.1271C525.419 87.1925 526.352 90.8669 526.352 95.1506C526.352 99.4735 525.39 103.118 523.464 106.086C521.558 109.053 518.876 111.293 515.417 112.806C511.979 114.319 507.96 115.075 503.362 115.075H487.8V102.342H500.061C501.987 102.342 503.628 102.107 504.983 101.635C506.359 101.144 507.41 100.368 508.137 99.3065C508.884 98.2454 509.257 96.8601 509.257 95.1506C509.257 93.4214 508.884 92.0165 508.137 90.9357C507.41 89.8353 506.359 89.0297 504.983 88.5188C503.628 87.9883 501.987 87.723 500.061 87.723H494.284V135H477.896ZM513.266 107.294L528.357 135H510.554L495.817 107.294H513.266ZM531.687 87.8409V74.6364H584.152V87.8409H565.996V135H549.844V87.8409H531.687Z" fill="#232323"/>
<defs>
<linearGradient id="paint0_linear_17_2" x1="74.5145" y1="1.00931" x2="74.5145" y2="158.142" gradientUnits="userSpaceOnUse">
<stop stop-color="#067DD9" stop-opacity="0.98"/>
<stop offset="1" stop-color="#5E39FF"/>
</linearGradient>
</defs>
</svg>
